<svg width="240" height="80" viewBox="0 0 240 80" fill="none" xmlns="http://www.w3.org/2000/svg">
<g id="Horizontal-dpc 1" clip-path="url(#clip0_2_900)">
<path id="Vector" d="M35.7755 63.5499C33.148 63.5666 31.0089 61.4666 31.0089 58.8666C30.992 56.2666 33.1143 54.1499 35.7419 54.1499C43.6245 54.1499 50.025 47.8166 50.025 40.0166C50.025 32.2166 43.6245 25.8833 35.7419 25.8833C33.1143 25.8666 30.992 23.7666 31.0089 21.1666C31.0257 18.5666 33.148 16.4666 35.7755 16.4833H35.8092C38.9758 16.4999 42.0918 17.1499 45.0057 18.3999C50.665 20.8333 55.1622 25.2999 57.5708 30.9166C60.0636 36.7333 60.0636 43.2999 57.5708 49.1332C55.1622 54.7499 50.665 59.2332 45.0057 61.6499C42.1086 62.8999 38.9758 63.5499 35.8092 63.5666H35.7755V63.5499Z" fill="#F19800"/>
<path id="Vector_2" d="M34.6463 46.8501L34.68 46.8668L40.4235 49.4334L38.0486 44.7668L35.6737 30.6001L33.3325 44.3168C33.3157 44.4501 33.2988 44.6001 33.2988 44.7334C33.2988 45.6334 33.821 46.4668 34.6463 46.8501Z" fill="#F19800"/>
<path id="Vector_3" d="M21.5932 17.7002C23.5653 17.7002 25.164 16.1183 25.164 14.1669C25.164 12.2155 23.5653 10.6335 21.5932 10.6335C19.6212 10.6335 18.0225 12.2155 18.0225 14.1669C18.0225 16.1183 19.6212 17.7002 21.5932 17.7002Z" fill="#F19800"/>
<path id="Vector_4" d="M71.0786 27.1833C63.9034 10.4333 44.382 2.59997 27.4545 9.66664L27.185 9.78331C27.6903 10.4 28.0777 11.1166 28.3472 11.8666C32.1706 10.25 36.2804 9.43331 40.4238 9.43331C57.4692 9.43331 71.3313 23.15 71.3313 40.0166C71.3313 56.8833 57.4692 70.6 40.4238 70.6C23.3784 70.6 9.49956 56.8666 9.49956 40.0166C9.49956 32.55 12.245 25.35 17.2475 19.7833C16.6074 19.3 16.0516 18.7166 15.6137 18.05C3.36861 31.5833 4.53079 52.3833 18.2244 64.5166C31.918 76.65 52.9552 75.4833 65.2003 61.9333C73.7904 52.45 76.0811 38.9166 71.0786 27.1833Z" fill="#F19800"/>
<path id="Vector_5" d="M96.4282 38.7334C97.3209 37.8001 97.9946 36.6834 98.4325 35.4668C99.3589 32.7501 99.3589 29.8168 98.4325 27.1001C97.9946 25.8834 97.304 24.7668 96.4113 23.8334C95.5355 22.9168 94.4575 22.1834 93.2616 21.7168C91.9647 21.2168 90.5667 20.9668 89.1687 20.9834H80.8145V41.5834H89.1687C90.5667 41.6001 91.9647 41.3501 93.2785 40.8501C94.4744 40.3834 95.5523 39.6501 96.4282 38.7334ZM94.7944 34.0834C94.5417 34.8668 94.1206 35.6001 93.5817 36.2168C93.0427 36.8001 92.3858 37.2668 91.6447 37.5668C90.8194 37.9001 89.9267 38.0501 89.034 38.0334H84.6884V24.5001H89.034C89.9267 24.4834 90.8025 24.6501 91.6278 24.9668C92.3689 25.2668 93.0258 25.7334 93.5817 26.3168C94.1375 26.9334 94.5586 27.6668 94.8112 28.4501C95.3502 30.3001 95.3502 32.2501 94.7944 34.0834Z" fill="#F19800"/>
<path id="Vector_6" d="M110.913 41.8668C111.671 41.8668 112.412 41.7668 113.137 41.5668C113.878 41.3668 114.602 41.1002 115.293 40.7502C115.949 40.4168 116.573 40.0002 117.112 39.5002L115.293 37.0002C114.703 37.5335 114.029 37.9502 113.305 38.2668C112.665 38.5002 111.974 38.6335 111.284 38.6168C110.324 38.6335 109.381 38.4335 108.538 38.0168C107.78 37.6335 107.14 37.0335 106.719 36.3002C106.433 35.7835 106.231 35.2168 106.147 34.6168H117.701L117.735 33.3502C117.768 32.3168 117.6 31.2835 117.246 30.3002C116.926 29.4002 116.404 28.5835 115.747 27.8835C115.09 27.2002 114.299 26.6668 113.423 26.2835C112.513 25.8835 111.536 25.6835 110.543 25.7002C109.431 25.6835 108.336 25.9002 107.309 26.3002C106.349 26.6835 105.49 27.2668 104.782 28.0002C104.075 28.7502 103.502 29.6335 103.132 30.6002C102.727 31.6668 102.525 32.7835 102.542 33.9168C102.508 35.3502 102.879 36.7502 103.603 37.9835C104.311 39.1668 105.321 40.1335 106.551 40.8002C107.814 41.5335 109.263 41.8668 110.913 41.8668ZM108.1 29.4835C108.757 29.1168 109.583 28.9335 110.56 28.9168C111.166 28.9168 111.755 29.0502 112.294 29.3168C112.8 29.5668 113.254 29.9502 113.591 30.4002C113.928 30.8668 114.13 31.4335 114.181 32.0002V32.1502H106.231C106.315 31.7835 106.433 31.4168 106.585 31.0835C106.921 30.4168 107.444 29.8502 108.1 29.4835Z" fill="#F19800"/>
<path id="Vector_7" d="M132.304 39.5501C132.826 38.8334 133.096 37.9667 133.096 37.0834C133.096 36.5501 133.028 36.0334 132.86 35.5167C132.708 35.0501 132.422 34.6167 132.051 34.2834C131.613 33.8334 131.091 33.4501 130.502 33.2001C129.727 32.8334 128.902 32.5501 128.059 32.3334C127.487 32.2167 126.914 32.0501 126.358 31.8334C126.021 31.7001 125.685 31.5501 125.381 31.3667C125.179 31.2334 125.028 31.0501 124.927 30.8501C124.826 30.6501 124.758 30.4167 124.741 30.1834C124.741 29.9334 124.792 29.6834 124.91 29.4667C125.011 29.2667 125.179 29.0834 125.365 28.9501C125.584 28.8001 125.836 28.7001 126.106 28.6334C126.443 28.5667 126.779 28.5334 127.116 28.5334C127.554 28.5501 127.992 28.6334 128.396 28.7834C128.868 28.9667 129.323 29.1834 129.744 29.4501C130.182 29.7167 130.603 30.0334 130.973 30.3834L132.995 28.1834C132.523 27.6667 131.967 27.2167 131.344 26.8667C130.687 26.5001 129.996 26.2167 129.272 26.0334C128.514 25.8334 127.739 25.7334 126.965 25.7334C126.207 25.7334 125.466 25.8334 124.741 26.0501C124.068 26.2501 123.428 26.5667 122.872 26.9834C122.35 27.3834 121.929 27.8667 121.609 28.4334C121.305 29.0001 121.137 29.6501 121.154 30.3001C121.154 30.8167 121.238 31.3334 121.406 31.8334C121.575 32.3001 121.827 32.7334 122.164 33.1001C122.636 33.6001 123.209 34.0167 123.832 34.3167C124.691 34.7334 125.584 35.0501 126.51 35.2834C127.066 35.4001 127.622 35.5667 128.161 35.7501C128.497 35.8667 128.801 36.0167 129.104 36.1834C129.457 36.4501 129.66 36.8667 129.643 37.3001C129.643 37.5334 129.592 37.7834 129.474 37.9834C129.356 38.2001 129.205 38.3834 129.02 38.5334C128.817 38.7001 128.582 38.8167 128.312 38.8834C128.009 38.9667 127.706 39.0001 127.403 39.0001C126.611 39.0001 125.819 38.8501 125.078 38.5667C124.303 38.2501 123.63 37.7501 123.091 37.1334L120.716 39.1667C121.423 40.0501 122.35 40.7334 123.411 41.1501C124.59 41.6334 125.87 41.8667 127.15 41.8334C128.194 41.8501 129.239 41.6334 130.199 41.2167C131.024 40.8834 131.748 40.3001 132.304 39.5501Z" fill="#F19800"/>
<path id="Vector_8" d="M152.044 37.9501C152.684 36.6668 153.004 35.2501 152.987 33.8168C152.987 32.2501 152.667 30.8668 152.044 29.6668C151.455 28.5168 150.579 27.5335 149.484 26.8335C148.372 26.1335 147.092 25.7835 145.779 25.8001C144.077 25.8001 142.46 26.4501 141.231 27.6168C141.079 27.7668 140.945 27.9168 140.81 28.0835L140.776 26.0835H137.188V48.0668H140.877V39.7501C140.945 39.8168 141.012 39.8835 141.079 39.9501C141.702 40.5501 142.427 41.0168 143.218 41.3335C144.044 41.6835 144.953 41.8668 145.846 41.8668C147.143 41.8835 148.406 41.5168 149.484 40.8168C150.579 40.0835 151.455 39.1001 152.044 37.9501ZM148.861 36.3168C148.524 37.0168 147.985 37.6001 147.328 38.0168C145.947 38.8335 144.212 38.8335 142.814 38.0168C142.157 37.6001 141.635 37.0001 141.281 36.3168C140.523 34.7335 140.523 32.9001 141.281 31.3168C141.635 30.6168 142.157 30.0335 142.814 29.6168C143.505 29.2001 144.296 29.0001 145.088 29.0168C145.88 29.0001 146.671 29.2168 147.345 29.6335C148.002 30.0501 148.524 30.6335 148.861 31.3168C149.602 32.9168 149.602 34.7335 148.861 36.3168Z" fill="#F19800"/>
<path id="Vector_9" d="M169.325 27.9167C168.669 27.2334 167.877 26.6834 167.001 26.3167C166.091 25.9167 165.115 25.7167 164.121 25.7334C163.009 25.7167 161.914 25.9334 160.887 26.3334C159.927 26.7167 159.068 27.3001 158.36 28.0334C157.653 28.7834 157.08 29.6667 156.71 30.6334C156.306 31.7001 156.103 32.8167 156.12 33.9501C156.087 35.3834 156.457 36.7834 157.181 38.0167C157.889 39.2001 158.899 40.1667 160.129 40.8334C161.392 41.5167 162.841 41.8667 164.491 41.8667C165.249 41.8667 165.99 41.7667 166.715 41.5667C167.456 41.3667 168.18 41.1001 168.871 40.7501C169.544 40.4167 170.151 40.0001 170.707 39.5001L168.887 37.0001C168.298 37.5334 167.624 37.9501 166.9 38.2667C166.26 38.5001 165.569 38.6334 164.879 38.6167C163.919 38.6334 162.975 38.4334 162.133 38.0167C161.375 37.6334 160.735 37.0334 160.314 36.3001C160.028 35.7834 159.826 35.2167 159.742 34.6167H171.296L171.33 33.3501C171.363 32.3167 171.195 31.2834 170.841 30.3001C170.504 29.4334 169.999 28.6001 169.325 27.9167ZM161.679 29.4834C162.335 29.1167 163.161 28.9334 164.138 28.9167C164.744 28.9167 165.334 29.0501 165.873 29.3167C166.378 29.5667 166.833 29.9501 167.169 30.4001C167.506 30.8667 167.708 31.4334 167.759 32.0001V32.1501H159.826C159.893 31.7834 160.028 31.4167 160.18 31.0834C160.5 30.4167 161.022 29.8501 161.679 29.4834Z" fill="#F19800"/>
<path id="Vector_10" d="M183.76 29.7166C184.046 29.7833 184.316 29.8833 184.568 30.0166L185.545 26.0499C185.293 25.9666 185.04 25.8833 184.787 25.8499C184.467 25.7833 184.147 25.7666 183.827 25.7666C183.052 25.7666 182.294 25.9499 181.604 26.3166C180.896 26.6833 180.256 27.1833 179.751 27.7999C179.498 28.0999 179.279 28.3999 179.094 28.7499L179.061 26.0999H175.456V41.5999H179.145V33.3333C179.145 32.8166 179.229 32.3166 179.431 31.8499C179.802 30.9666 180.509 30.2666 181.402 29.9166C181.857 29.7333 182.328 29.6333 182.817 29.6333C183.137 29.5999 183.457 29.6499 183.76 29.7166Z" fill="#F19800"/>
<path id="Vector_11" d="M194.81 41.5833V29.4333H198.229V26.0666H194.81V22.1333H191.155V26.0666H188.072V29.4333H191.155V41.5833H194.81Z" fill="#F19800"/>
<path id="Vector_12" d="M212.916 28.25C212.612 27.8 212.242 27.4 211.821 27.05C211.315 26.6334 210.726 26.3 210.103 26.1C209.395 25.8667 208.671 25.75 207.93 25.7667C206.633 25.75 205.353 26.1 204.241 26.8C203.13 27.5 202.237 28.4834 201.664 29.65C200.401 32.2667 200.401 35.3167 201.664 37.95C202.254 39.1 203.113 40.1 204.191 40.8334C205.218 41.5334 206.448 41.9 207.694 41.9C208.418 41.9 209.143 41.7834 209.816 41.55C210.456 41.3167 211.08 41.0167 211.635 40.6167C212.107 40.2834 212.545 39.8834 212.899 39.4334V41.6167H216.604V26.1167H212.916V28.25ZM210.962 38.05C210.288 38.4667 209.496 38.6834 208.705 38.6667C207.913 38.6834 207.138 38.4667 206.465 38.05C205.808 37.6334 205.286 37.0334 204.966 36.3334C204.595 35.5334 204.41 34.6667 204.427 33.7834C204.41 32.9167 204.595 32.0667 204.966 31.2834C205.302 30.5834 205.825 30 206.465 29.5834C207.138 29.1667 207.913 28.95 208.705 28.9667C209.496 28.95 210.288 29.1667 210.962 29.5834C211.619 30 212.158 30.6 212.494 31.2834C212.865 32.0667 213.067 32.9167 213.05 33.7834C213.067 34.6667 212.882 35.5334 212.494 36.3334C212.158 37.0334 211.619 37.6334 210.962 38.05Z" fill="#F19800"/>
<path id="Vector_13" d="M231.073 25.8333C230.753 25.7667 230.433 25.75 230.113 25.75C229.339 25.75 228.581 25.9333 227.89 26.3C227.183 26.6667 226.559 27.1833 226.037 27.7833C225.785 28.0833 225.566 28.3833 225.38 28.7333L225.347 26.0833H221.742V41.5833H225.431V33.3167C225.431 32.8 225.515 32.3 225.717 31.8333C226.088 30.95 226.795 30.25 227.688 29.9C228.143 29.7167 228.614 29.6167 229.103 29.6167C229.423 29.6167 229.743 29.65 230.063 29.7333C230.349 29.8 230.619 29.9 230.871 30.0333L231.848 26.0667C231.596 25.95 231.343 25.8833 231.073 25.8333Z" fill="#F19800"/>
<path id="Vector_14" d="M89.977 51.9C89.3538 51.5 88.6127 51.3 87.8716 51.3166C86.9116 51.3166 85.9852 51.6833 85.2946 52.35C85.2104 52.4333 85.1262 52.5166 85.0588 52.6166L85.0419 51.4833H83.0039V63.95H85.0925V59.2333C85.1262 59.2666 85.1598 59.3166 85.1935 59.35C85.5472 59.6833 85.9515 59.95 86.4063 60.1333C86.8779 60.3333 87.3832 60.4333 87.9053 60.4333C88.6296 60.45 89.3538 60.2333 89.977 59.85C90.6002 59.45 91.1055 58.8833 91.4255 58.2333C92.133 56.75 92.133 55.0166 91.4255 53.5333C91.0887 52.8333 90.6002 52.2833 89.977 51.9ZM89.6233 57.2666C89.4212 57.6666 89.1349 58 88.7475 58.2333C88.3769 58.4666 87.9222 58.6 87.4842 58.5833C87.0295 58.6 86.5747 58.4666 86.1873 58.2333C85.8167 58 85.5136 57.6666 85.3283 57.2666C84.9072 56.3666 84.9072 55.3333 85.3283 54.4333C85.5304 54.0333 85.8167 53.7166 86.1873 53.4666C86.5747 53.2333 87.0295 53.1166 87.4842 53.1333C88.3938 53.1166 89.2359 53.6333 89.6233 54.45C90.0444 55.3333 90.0444 56.3666 89.6233 57.2666Z" fill="#F19800"/>
<path id="Vector_15" d="M100.639 52.6833C100.47 52.4333 100.251 52.2 100.016 52C99.7292 51.7667 99.3923 51.5833 99.0386 51.45C98.6344 51.3167 98.2301 51.25 97.8091 51.2667C97.0679 51.25 96.3437 51.4667 95.7205 51.85C95.0973 52.25 94.592 52.8 94.2551 53.4667C93.5308 54.95 93.5308 56.6833 94.2551 58.1667C94.592 58.8167 95.0804 59.3833 95.6868 59.8C96.2763 60.2 96.9669 60.4 97.6743 60.4C98.0785 60.4 98.4996 60.3333 98.887 60.2C99.2576 60.0667 99.5944 59.9 99.9145 59.6667C100.184 59.4833 100.42 59.25 100.639 59V60.2333H102.744V51.4333H100.656V52.6833H100.639ZM99.5271 58.25C99.1397 58.4833 98.7017 58.6167 98.247 58.6C97.7922 58.6167 97.3543 58.4833 96.9669 58.25C96.5963 58.0167 96.31 57.6667 96.1247 57.2667C95.9058 56.8167 95.8047 56.3167 95.8215 55.8167C95.8047 55.3333 95.9226 54.8333 96.1247 54.4C96.31 54 96.5963 53.6667 96.9669 53.4333C97.3543 53.2 97.7922 53.0667 98.247 53.0833C98.7017 53.0667 99.1397 53.2 99.5271 53.4333C99.8976 53.6667 100.201 54 100.403 54.4C100.622 54.85 100.723 55.3333 100.706 55.8167C100.723 56.3167 100.605 56.8167 100.403 57.2667C100.201 57.6667 99.8976 58.0167 99.5271 58.25Z" fill="#F19800"/>
<path id="Vector_16" d="M110.39 51.2668C109.953 51.2668 109.515 51.3668 109.127 51.5835C108.723 51.8002 108.369 52.0835 108.066 52.4335C107.931 52.6002 107.797 52.7835 107.696 52.9668L107.679 51.4668H105.641V60.2668H107.729V55.5668C107.729 55.2835 107.78 54.9835 107.898 54.7335C108.1 54.2335 108.504 53.8335 109.009 53.6335C109.262 53.5335 109.531 53.4668 109.818 53.4668C110.003 53.4668 110.188 53.4835 110.357 53.5335C110.508 53.5668 110.66 53.6335 110.812 53.7002L111.367 51.4502C111.233 51.4002 111.081 51.3668 110.929 51.3335C110.761 51.2835 110.576 51.2668 110.39 51.2668Z" fill="#F19800"/>
<path id="Vector_17" d="M119.217 52.6833C119.048 52.4333 118.829 52.2 118.594 52C118.307 51.7667 117.97 51.5833 117.617 51.45C117.212 51.3167 116.808 51.25 116.387 51.2667C115.646 51.25 114.922 51.4667 114.299 51.85C113.675 52.25 113.17 52.8 112.833 53.4667C112.109 54.95 112.109 56.6833 112.833 58.1667C113.17 58.8167 113.659 59.3833 114.265 59.8C114.854 60.2 115.545 60.4 116.252 60.4C116.657 60.4 117.078 60.3333 117.465 60.2C117.836 60.0667 118.173 59.9 118.493 59.6667C118.762 59.4833 118.998 59.25 119.2 59V60.2333H121.305V51.4333H119.217V52.6833ZM118.088 58.25C117.701 58.4833 117.263 58.6167 116.808 58.6C116.353 58.6167 115.916 58.4833 115.528 58.25C115.158 58.0167 114.854 57.6667 114.669 57.2667C114.467 56.8167 114.349 56.3167 114.366 55.8167C114.349 55.3333 114.467 54.85 114.669 54.4C114.854 54 115.158 53.6667 115.528 53.4333C115.916 53.2 116.353 53.0667 116.808 53.0833C117.263 53.0667 117.701 53.2 118.088 53.4333C118.459 53.6667 118.762 54 118.964 54.4C119.183 54.85 119.284 55.3333 119.267 55.8167C119.284 56.3167 119.166 56.8167 118.964 57.2667C118.779 57.6667 118.476 58.0167 118.088 58.25Z" fill="#F19800"/>
<path id="Vector_18" d="M136.01 52.6833C135.841 52.4333 135.622 52.2 135.387 52C135.1 51.7667 134.763 51.5833 134.41 51.45C134.005 51.3167 133.601 51.25 133.18 51.2667C132.439 51.25 131.715 51.4667 131.092 51.85C130.468 52.25 129.963 52.8 129.626 53.4667C128.902 54.95 128.902 56.6833 129.626 58.1667C129.963 58.8167 130.452 59.3833 131.058 59.8C131.647 60.2 132.338 60.4 133.045 60.4C133.45 60.4 133.871 60.3333 134.258 60.2C134.629 60.0667 134.966 59.9 135.286 59.6667C135.555 59.4833 135.791 59.25 135.993 59V60.2333H138.098V51.4333H136.01V52.6833ZM134.898 58.25C134.511 58.4833 134.073 58.6167 133.618 58.6C133.163 58.6167 132.725 58.4833 132.338 58.25C131.967 58.0167 131.664 57.6667 131.479 57.2667C131.277 56.8167 131.159 56.3167 131.176 55.8167C131.159 55.3333 131.277 54.85 131.479 54.4C131.664 54 131.967 53.6667 132.338 53.4333C132.725 53.2 133.163 53.0667 133.618 53.0833C134.073 53.0667 134.511 53.2 134.898 53.4333C135.269 53.6667 135.572 54 135.774 54.4C135.993 54.85 136.094 55.3333 136.077 55.8167C136.094 56.3167 135.976 56.8167 135.774 57.2667C135.572 57.6667 135.269 58.0167 134.898 58.25Z" fill="#F19800"/>
<path id="Vector_19" d="M149.165 53.45C149.569 53.2 150.024 53.0834 150.495 53.1C150.798 53.1 151.085 53.15 151.371 53.2667C151.657 53.3834 151.944 53.5334 152.196 53.7167C152.449 53.9 152.651 54.1 152.836 54.35L153.982 52.9834C153.611 52.4334 153.072 52 152.466 51.7334C151.775 51.4334 151.034 51.2667 150.293 51.2834C149.501 51.2667 148.727 51.4834 148.053 51.8834C147.396 52.2834 146.857 52.85 146.486 53.5167C145.728 54.9834 145.728 56.7167 146.486 58.1834C146.857 58.85 147.396 59.4167 148.053 59.8167C148.727 60.2167 149.501 60.4334 150.293 60.4167C151.017 60.4167 151.742 60.2667 152.415 59.95C153.038 59.6834 153.577 59.2834 153.999 58.75L152.853 57.3667C152.651 57.6167 152.415 57.85 152.163 58.0334C151.927 58.2 151.657 58.35 151.371 58.45C151.101 58.55 150.815 58.5834 150.529 58.6C150.057 58.6 149.602 58.4834 149.215 58.2334C148.828 57.9834 148.508 57.65 148.272 57.25C148.036 56.8167 147.918 56.3334 147.935 55.85C147.935 55.3667 148.036 54.8834 148.272 54.4334C148.474 54.0334 148.777 53.7 149.165 53.45Z" fill="#F19800"/>
<path id="Vector_20" d="M158.31 47.5167C158.04 47.3001 157.687 47.1834 157.333 47.2001C156.979 47.1834 156.642 47.3001 156.373 47.5334C156.137 47.7667 156.002 48.0667 156.019 48.4001C156.002 48.7334 156.12 49.0501 156.356 49.2834C156.626 49.5001 156.979 49.6167 157.333 49.6001C157.687 49.6167 158.04 49.5001 158.31 49.2667C158.765 48.7667 158.765 48.0001 158.31 47.5167Z" fill="#F19800"/>
<path id="Vector_21" d="M158.377 51.4502H156.306V60.2502H158.377V51.4502Z" fill="#F19800"/>
<path id="Vector_22" d="M168.433 52.5C168.062 52.1167 167.607 51.8 167.119 51.5833C166.597 51.3667 166.041 51.25 165.485 51.25C164.862 51.25 164.239 51.3667 163.649 51.6C163.11 51.8167 162.622 52.15 162.218 52.5667C161.813 53 161.493 53.5 161.274 54.05C161.039 54.65 160.937 55.3 160.937 55.9333C160.921 56.75 161.123 57.5333 161.544 58.25C161.948 58.9167 162.521 59.4667 163.211 59.85C164.357 60.4333 165.687 60.5833 166.951 60.2667C167.372 60.15 167.776 60 168.163 59.8C168.534 59.6167 168.888 59.3833 169.208 59.1L168.18 57.6833C167.843 57.9833 167.473 58.2333 167.052 58.4C166.681 58.5333 166.294 58.6 165.906 58.6C165.367 58.6167 164.828 58.5 164.34 58.25C163.902 58.0333 163.548 57.7 163.312 57.2667C163.144 56.9667 163.043 56.65 162.992 56.3167H169.544L169.561 55.6C169.578 55.0167 169.477 54.4333 169.275 53.8667C169.106 53.3667 168.803 52.9 168.433 52.5ZM164.087 53.4C164.508 53.1833 164.997 53.0667 165.485 53.0833C165.822 53.0833 166.159 53.15 166.479 53.3167C166.765 53.4667 167.018 53.6667 167.22 53.9333C167.405 54.2 167.523 54.5167 167.557 54.85V54.9333H163.043C163.077 54.7167 163.161 54.5167 163.245 54.3167C163.43 53.9167 163.717 53.6 164.087 53.4Z" fill="#F19800"/>
<path id="Vector_23" d="M167.591 50.1499L168.349 49.4999L166.243 47.5166H164.727L162.622 49.4999L163.38 50.1499L165.485 48.9999L167.591 50.1499Z" fill="#F19800"/>
<path id="Vector_24" d="M178.471 51.6668C177.949 51.3834 177.36 51.2501 176.77 51.2668C176.298 51.2668 175.827 51.3668 175.389 51.5668C174.951 51.7501 174.564 52.0334 174.227 52.3668C174.126 52.4668 174.025 52.5834 173.94 52.7001L173.924 51.4668H171.902V60.2668H173.991V54.9501C173.991 54.7001 174.041 54.4501 174.159 54.2168C174.26 54.0001 174.412 53.8001 174.597 53.6334C174.783 53.4501 175.018 53.3168 175.254 53.2334C175.524 53.1334 175.81 53.0834 176.079 53.0834C176.4 53.0668 176.736 53.1334 177.023 53.2668C177.292 53.4168 177.494 53.6334 177.595 53.9168C177.73 54.2668 177.797 54.6501 177.781 55.0334V60.2501H179.852V54.8834C179.869 54.2001 179.768 53.5168 179.516 52.8834C179.33 52.3668 178.96 51.9501 178.471 51.6668Z" fill="#F19800"/>
<path id="Vector_25" d="M185.377 53.45C185.782 53.2 186.236 53.0834 186.708 53.1C187.011 53.1 187.298 53.15 187.584 53.2667C187.887 53.3834 188.157 53.5334 188.409 53.7167C188.662 53.9 188.864 54.1 189.049 54.35L190.195 52.9834C189.824 52.4334 189.285 52 188.679 51.7334C187.988 51.4334 187.247 51.2667 186.506 51.2834C185.714 51.2667 184.939 51.4834 184.266 51.8834C183.609 52.2834 183.07 52.85 182.699 53.5167C181.941 54.9834 181.941 56.7167 182.699 58.1834C183.07 58.85 183.609 59.4167 184.266 59.8167C184.939 60.2167 185.714 60.4334 186.506 60.4167C187.23 60.4167 187.954 60.2667 188.628 59.95C189.251 59.6834 189.79 59.2834 190.211 58.75L189.066 57.3667C188.864 57.6167 188.628 57.85 188.376 58.0334C188.14 58.2 187.87 58.35 187.584 58.45C187.314 58.55 187.028 58.5834 186.742 58.6C186.27 58.6 185.815 58.4834 185.428 58.2334C185.041 57.9834 184.721 57.65 184.485 57.25C184.249 56.8167 184.131 56.3334 184.131 55.85C184.131 55.3667 184.232 54.8834 184.468 54.4334C184.67 54.0334 184.99 53.7 185.377 53.45Z" fill="#F19800"/>
<path id="Vector_26" d="M194.506 47.5167C194.237 47.3001 193.883 47.1834 193.529 47.2001C193.176 47.1834 192.839 47.3001 192.569 47.5334C192.333 47.7667 192.199 48.0667 192.215 48.4001C192.199 48.7334 192.317 49.0501 192.552 49.2834C192.822 49.5001 193.176 49.6167 193.529 49.6001C193.883 49.6167 194.237 49.5001 194.506 49.2667C194.961 48.7667 194.961 48.0001 194.506 47.5167Z" fill="#F19800"/>
<path id="Vector_27" d="M194.59 51.4502H192.519V60.2502H194.59V51.4502Z" fill="#F19800"/>
<path id="Vector_28" d="M204.057 52.6833C203.888 52.4333 203.669 52.2 203.433 52C203.147 51.7667 202.81 51.5833 202.457 51.45C202.052 51.3167 201.648 51.25 201.227 51.2667C200.486 51.25 199.762 51.4667 199.138 51.85C198.515 52.25 198.01 52.8 197.673 53.4667C196.949 54.95 196.949 56.6833 197.673 58.1667C198.01 58.8167 198.498 59.3833 199.105 59.8C199.694 60.2 200.385 60.4 201.092 60.4C201.497 60.4 201.918 60.3333 202.305 60.2C202.676 60.0667 203.012 59.9 203.332 59.6667C203.602 59.4833 203.838 59.25 204.04 59V60.2333H206.145V51.4333H204.057V52.6833ZM202.928 58.25C202.541 58.4833 202.103 58.6167 201.648 58.6C201.193 58.6167 200.755 58.4833 200.368 58.25C199.997 58.0167 199.694 57.6667 199.509 57.2667C199.307 56.8167 199.189 56.3167 199.206 55.8167C199.189 55.3333 199.307 54.85 199.509 54.4C199.694 54 199.997 53.6667 200.368 53.4333C200.755 53.2 201.193 53.0667 201.648 53.0833C202.103 53.0667 202.541 53.2 202.928 53.4333C203.299 53.6667 203.602 54 203.804 54.4C204.023 54.85 204.124 55.3333 204.107 55.8167C204.124 56.3167 204.006 56.8167 203.804 57.2667C203.619 57.6667 203.316 58.0167 202.928 58.25Z" fill="#F19800"/>
</g>
<defs>
<clipPath id="clip0_2_900">
<rect width="240" height="80" fill="white"/>
</clipPath>
</defs>
</svg>
