<?xml version="1.0" encoding="UTF-8"?>
<svg id="Camada_1" data-name="Camada 1" xmlns="http://www.w3.org/2000/svg" viewBox="0 0 1700 1700">
  <defs>
    <style>
      .cls-1 {
        fill: none;
      }

      .cls-2 {
        fill: #152440;
      }
    </style>
  </defs>
  <g id="Camada_2" data-name="Camada 2">
    <g id="Camada_1-2" data-name="Camada 1-2">
      <path class="cls-2" d="m652.34,1251.19c.4,54.95,45.05,99.28,100,99.28h.74c66.5-.4,132.23-14.24,193.25-40.69,118.91-51.58,213.48-146.84,264.19-266.12,52.4-123.71,52.4-263.37,0-387.08-50.71-119.29-145.29-214.56-264.21-266.13-61.02-26.45-126.75-40.29-193.25-40.69h-.74c-55.23-.2-100.16,44.42-100.36,99.64-.2,55.23,44.42,100.16,99.65,100.36h0c164.39,1.18,298.19,135.92,298.19,300.35s-133.8,299.17-298.19,300.36c-55.23.4-99.67,45.49-99.27,100.72Z"/>
      <path class="cls-2" d="m728.56,995.54h.05l.67.31,121,54.42-49.92-99.13-50.03-301.14-49.23,291.65h0c-3.99,22.08,7.23,44.12,27.43,53.89h.03Z"/>
      <circle class="cls-2" cx="454.27" cy="300.74" r="75"/>
      <path class="cls-2" d="m1495,577.52C1344.28,221.53,933.75,54.84,577.52,205c-1.92.81-3.84,1.64-5.76,2.47,10.54,13.25,18.76,28.2,24.3,44.2,80.29-34.19,166.67-51.77,253.94-51.67,358.41,0,650,291.59,650,650s-291.59,650-650,650S200,1208.41,200,850c0-164.8,61.66-315.46,163.11-430.15-13.47-10.31-25.1-22.82-34.4-37-257.74,288.01-233.2,730.44,54.82,988.18,288.01,257.74,730.44,233.2,988.18-54.82,180.48-201.67,228.49-489.33,123.3-738.69Z"/>
      <rect class="cls-1" width="1700" height="1700"/>
    </g>
  </g>
</svg>